<svg version="1.2" xmlns="http://www.w3.org/2000/svg" viewBox="0 0 500 502" width="500" height="502"><style>.a{fill:#333}</style><path class="a" d="m19.1 94.6v78.4c99.7-0.1 129.2 0.3 130 0.8 0.8 0.6-28.2 30.3-64.4 66.2l-65.7 65.1 1 72.1 255.4-255.3h-205.2l0.9-53.8c252.4-0.7 326.9-0.2 328.4 0.5 2.1 1-45.9 49.9-188.8 192.3l-191.6 191v36.5h472.5l-0.9-155.9-204.3-0.8c-38.8 38.8-49.7 50.6-49.2 51.4 0.5 0.7 46.4 1.3 102.1 1.3h101.2l-0.9 52c-256.6 0.7-331.1 0.3-331.1-0.4 0-0.8 86.2-87.6 191.6-192.8l191.5-191.5v-35.5h-472.5z"/></svg>